<?xml version="1.0" standalone="no"?>
<!DOCTYPE svg PUBLIC "-//W3C//DTD SVG 20010904//EN"
 "http://www.w3.org/TR/2001/REC-SVG-20010904/DTD/svg10.dtd">
<svg version="1.0" xmlns="http://www.w3.org/2000/svg"
 width="12.000000pt" height="13.000000pt" viewBox="0 0 12.000000 13.000000"
 preserveAspectRatio="xMidYMid meet">

<g transform="translate(0.000000,13.000000) scale(0.100000,-0.100000)"
fill="#000000" stroke="none">
<path d="M21 117 c-13 -16 -5 -47 12 -47 6 0 1 -7 -11 -16 -12 -8 -22 -24 -22
-35 0 -16 7 -19 46 -19 39 0 45 2 35 14 -7 9 -8 17 -3 20 6 3 13 -1 16 -10 3
-8 11 -12 17 -8 14 8 -27 43 -50 44 -11 0 -9 4 5 14 15 12 17 18 8 33 -14 23
-38 28 -53 10z"/>
</g>
</svg>
