<svg width="32" height="32" viewBox="0 0 32 32" fill="none" xmlns="http://www.w3.org/2000/svg">
<rect width="32" height="32" rx="10" fill="#F3F5FA"/>
<path d="M15.6154 15.5C17.3997 15.5 18.8461 14.0449 18.8461 12.25C18.8461 10.4551 17.3997 9 15.6154 9C13.8311 9 12.3846 10.4551 12.3846 12.25C12.3846 14.0449 13.8311 15.5 15.6154 15.5Z" fill="black"/>
<path d="M18.3846 19.2143C18.3846 18.4451 19.0046 17.8214 19.7693 17.8214H19.857C19.2791 16.684 18.1175 15.9671 16.8477 15.9643H14.3831C12.5157 15.9669 11.0025 17.489 11 19.3675V21.5357C11 21.7922 11.2066 22 11.4615 22H19.7693C20.0242 22 20.2308 21.7922 20.2308 21.5357V20.6072H19.7693C19.0046 20.6072 18.3846 19.9836 18.3846 19.2143Z" fill="black"/>
<path d="M22.5385 18.75H19.7692C19.5143 18.75 19.3077 18.9579 19.3077 19.2143C19.3077 19.4707 19.5143 19.6786 19.7692 19.6786H22.5385C22.7934 19.6786 23 19.4707 23 19.2143C23 18.9579 22.7934 18.75 22.5385 18.75Z" fill="black"/>
<path d="M20.6923 17.8218V20.6075C20.6923 20.8639 20.8989 21.0718 21.1538 21.0718C21.4087 21.0718 21.6154 20.8639 21.6154 20.6075V17.8218C21.6154 17.5653 21.4087 17.3575 21.1538 17.3575C20.8989 17.3575 20.6923 17.5653 20.6923 17.8218Z" fill="black"/>
</svg>
